<?xml version="1.0" encoding="UTF-8"?>
<svg width="22px" height="22px" viewBox="0 0 22 22" version="1.1" xmlns="http://www.w3.org/2000/svg" xmlns:xlink="http://www.w3.org/1999/xlink">
    <title>编组 5</title>
    <g id="页面-1" stroke="none" stroke-width="1" fill="none" fill-rule="evenodd">
        <g id="iPhone-13-Pro备份" transform="translate(-16.000000, -556.000000)">
            <g id="编组-5" transform="translate(16.000000, 556.000000)">
                <rect id="矩形备份-14" x="0" y="0" width="22" height="22"></rect>
                <g id="huodaofukuan" transform="translate(11.458333, 11.085938) scale(-1, 1) translate(-11.458333, -11.085938) translate(1.833333, 3.666667)" fill="#040000" fill-rule="nonzero">
                    <path d="M4.01041666,10.0260417 C2.68148148,10.0260417 1.60416666,11.1033565 1.60416666,12.4322917 C1.60416666,13.7612269 2.68148148,14.8385417 4.01041666,14.8385417 C5.33935184,14.8385417 6.41666666,13.7612269 6.41666666,12.4322917 C6.41666666,11.1033565 5.33935184,10.0260417 4.01041666,10.0260417 Z M4.01041666,14.0364583 C3.12571875,14.0364583 2.40625,13.3169896 2.40625,12.4322917 C2.40625,11.5475938 3.12571875,10.828125 4.01041666,10.828125 C4.89511457,10.828125 5.61458334,11.5475938 5.61458334,12.4322917 C5.61458334,13.3169896 4.89511459,14.0364583 4.01041666,14.0364583 Z M5.61458334,5.61458334 C5.50822047,5.61458334 5.40621395,5.65683581 5.33100405,5.73204572 C5.25579415,5.80725562 5.21354166,5.90926214 5.21354166,6.015625 L5.21354166,7.21875 L4.01041666,7.21875 C3.78892746,7.21875 3.60937499,7.39830247 3.60937499,7.61979167 C3.60937499,7.84128087 3.78892746,8.02083334 4.01041666,8.02083334 L5.61458334,8.02083334 C5.7209462,8.02083334 5.82295272,7.97858086 5.89816262,7.90337096 C5.97337252,7.82816106 6.015625,7.72615454 6.015625,7.61979168 L6.015625,6.015625 C6.015625,5.79413581 5.83607253,5.61458334 5.61458334,5.61458334 L5.61458334,5.61458334 Z" id="形状"></path>
                    <path d="M18.8489583,5.61458334 C19.0704475,5.61458334 19.25,5.43503087 19.25,5.21354168 L19.25,1.203125 C19.25,0.53980209 18.7101979,0 18.046875,0 L8.421875,0 C7.75855209,0 7.21875,0.53980209 7.21875,1.203125 L7.21875,3.20833334 L4.18847916,3.20833334 C3.61258332,3.20833334 2.88509375,3.62621875 2.49608334,4.18126043 L0.24944791,7.38959375 C0.154,7.52594791 0.0882291604,7.66551041 0.0497291604,7.81229168 L0,7.87004168 L0,12.8333333 L1.64427084,12.8333333 C1.62261459,12.7025938 1.60416668,12.5694479 1.60416666,12.4322917 C1.60416664,12.2951354 1.62261457,12.1619896 1.64427084,12.03125 L0.80208334,12.03125 L0.80208334,8.16039584 L0.818125,8.05853125 C0.830017588,7.98270079 0.860616244,7.91102827 0.90715625,7.84998959 L3.15379166,4.64165625 C3.40644791,4.27991666 3.90855207,4.01041666 4.24302084,4.01041668 L7.21875,4.01041668 L7.21875,12.03125 L6.3765625,12.03125 C6.39821875,12.1619896 6.41666666,12.2951354 6.41666666,12.4322917 C6.41666666,12.5694479 6.39821875,12.7025938 6.3765625,12.8333333 L11.2700729,12.8333333 C11.4609687,13.9698854 12.4435208,14.8385417 13.6354167,14.8385417 C14.8273125,14.8385417 15.8098646,13.9698854 16.0007604,12.8333333 L18.046875,12.8333333 C18.7101979,12.8333333 19.25,12.2935313 19.25,11.6302083 L19.25,9.22395834 C19.25,9.00246914 19.0704475,8.82291667 18.8489583,8.82291667 C18.6274691,8.82291667 18.4479167,9.00246914 18.4479167,9.22395834 L18.4479167,11.6302083 C18.4479167,11.8507813 18.2674479,12.03125 18.046875,12.03125 L16.0007604,12.03125 C15.8098646,10.8946979 14.8273125,10.0260417 13.6354167,10.0260417 C12.4435208,10.0260417 11.4609687,10.8946979 11.2700729,12.03125 L8.02083334,12.03125 L8.02083334,1.203125 C8.02083334,0.981635807 8.20038581,0.80208334 8.421875,0.80208334 L18.046875,0.80208334 C18.2683642,0.80208334 18.4479167,0.981635807 18.4479167,1.203125 L18.4479167,5.21354168 C18.4479167,5.31990454 18.4901691,5.42191106 18.565379,5.49712096 C18.640589,5.57233086 18.7425955,5.61458334 18.8489583,5.61458334 Z M13.6354167,10.828125 C14.5201146,10.828125 15.2395833,11.5475938 15.2395833,12.4322917 C15.2395833,13.3169896 14.5201146,14.0364583 13.6354167,14.0364583 C12.7507187,14.0364583 12.03125,13.3169896 12.03125,12.4322917 C12.03125,11.5475938 12.7507188,10.828125 13.6354167,10.828125 Z" id="形状"></path>
                </g>
            </g>
        </g>
    </g>
</svg>