<?xml version="1.0" encoding="UTF-8"?>
<svg width="22px" height="22px" viewBox="0 0 22 22" version="1.1" xmlns="http://www.w3.org/2000/svg" xmlns:xlink="http://www.w3.org/1999/xlink">
    <title>编组 4</title>
    <g id="页面-1" stroke="none" stroke-width="1" fill="none" fill-rule="evenodd">
        <g id="iPhone-13-Pro备份" transform="translate(-16.000000, -586.000000)">
            <g id="编组-4" transform="translate(16.000000, 586.000000)">
                <rect id="矩形" x="0" y="0" width="22" height="22"></rect>
                <g id="diqiu" transform="translate(2.000000, 3.000000)" fill="#231815" fill-rule="nonzero" stroke="#FFFFFF" stroke-width="0.5">
                    <path d="M8.5,0 C3.80602679,0 0,3.80602679 0,8.5 C0,13.1939732 3.80602679,17 8.5,17 C13.1939732,17 17,13.1939732 17,8.5 C17,3.80602679 13.1939732,0 8.5,0 Z M8.5,4.25 C7.94029018,4.25 7.39386161,4.20066964 6.86450893,4.10770089 C7.36160714,2.11171875 8.10915179,1.0625 8.5,1.0625 C8.89084821,1.0625 9.63839286,2.11171875 10.1354911,4.10770089 C9.60613839,4.19877232 9.05970982,4.25 8.5,4.25 Z M11.1695313,3.86294643 C10.9114955,2.80613839 10.566183,1.91629464 10.1620536,1.25602679 C11.36875,1.53303571 12.4635045,2.10412946 13.3685268,2.88962054 C12.6987723,3.30323661 11.958817,3.63147321 11.1695313,3.86294643 Z M5.83046875,3.86294643 C5.04118304,3.63147321 4.303125,3.30133929 3.63337054,2.88962054 C4.53839286,2.10412946 5.63125,1.53493304 6.83794643,1.25792411 C6.43381696,1.91629464 6.09040179,2.80613839 5.83046875,3.86294643 Z M11.6780134,7.96875 C11.6533482,6.87779018 11.5508929,5.84564732 11.3858259,4.90647321 C12.3819196,4.621875 13.3078125,4.19877232 14.1331473,3.65803571 C15.146317,4.834375 15.7933036,6.32756696 15.9109375,7.96875 L11.6780134,7.96875 Z M1.0890625,7.96875 C1.20669643,6.32946429 1.85178571,4.83627232 2.86305804,3.65993304 C3.68839286,4.20066964 4.61618304,4.61997768 5.61417411,4.90457589 C5.44910714,5.84564732 5.34665179,6.87779018 5.32198661,7.96875 L1.0890625,7.96875 Z M6.38448661,7.96875 C6.40915179,6.91194196 6.50591518,5.96897321 6.64821429,5.14743304 C7.24776786,5.25368304 7.86439732,5.3125 8.5,5.3125 C9.13370536,5.3125 9.75223214,5.25558036 10.3517857,5.14933036 C10.4940848,5.97087054 10.5889509,6.91383929 10.6155134,7.96875 L6.38448661,7.96875 Z M14.1331473,13.3419643 C13.3078125,12.8012277 12.3819196,12.378125 11.3858259,12.0935268 C11.5508929,11.1524554 11.6533482,10.1203125 11.6780134,9.03125 L15.9109375,9.03125 C15.7933036,10.672433 15.146317,12.165625 14.1331473,13.3419643 L14.1331473,13.3419643 Z M6.64821429,11.852567 C6.50591518,11.0310268 6.41104911,10.088058 6.38448661,9.03125 L10.6136161,9.03125 C10.5889509,10.0861607 10.4940848,11.0291295 10.3498884,11.8506696 C9.75223214,11.7444196 9.13370536,11.6875 8.5,11.6875 C7.86629464,11.6875 7.24776786,11.746317 6.64821429,11.852567 Z M2.86495536,13.340067 C1.85368304,12.1637277 1.20669643,10.6705357 1.09095982,9.03125 L5.32388393,9.03125 C5.34854911,10.1222098 5.45100446,11.1543527 5.61607143,12.0954241 C4.61808036,12.3800223 3.69029018,12.7993304 2.86495536,13.340067 Z M8.5,15.9375 C8.10915179,15.9375 7.36160714,14.8882812 6.86450893,12.8922991 C7.39386161,12.8012277 7.94029018,12.75 8.5,12.75 C9.05970982,12.75 9.60613839,12.8012277 10.1354911,12.8922991 C9.63839286,14.8882812 8.89084821,15.9375 8.5,15.9375 Z M10.1620536,15.7439732 C10.566183,15.0837054 10.9114955,14.1938616 11.1695313,13.1370536 C11.9607143,13.3685268 12.6987723,13.6967634 13.3685268,14.1084821 C12.4635045,14.8958705 11.36875,15.4669643 10.1620536,15.7439732 L10.1620536,15.7439732 Z M6.83794643,15.7439732 C5.63125,15.4669643 4.53839286,14.8977679 3.63337054,14.1122768 C4.30122768,13.6986607 5.03928571,13.3704241 5.83046875,13.1389509 C6.09040179,14.1938616 6.43381696,15.0837054 6.83794643,15.7439732 Z" id="形状"></path>
                </g>
            </g>
        </g>
    </g>
</svg>